<?xml version="1.0" standalone="no"?>
<!DOCTYPE svg PUBLIC "-//W3C//DTD SVG 20010904//EN"
 "http://www.w3.org/TR/2001/REC-SVG-20010904/DTD/svg10.dtd">
<svg version="1.0" xmlns="http://www.w3.org/2000/svg"
 width="1000.000000pt" height="1000.000000pt" viewBox="0 0 1000.000000 1000.000000"
 preserveAspectRatio="xMidYMid meet">
<metadata>
Created by potrace 1.14, written by Peter Selinger 2001-2017
</metadata>
<g transform="translate(0.000000,1000.000000) scale(0.100000,-0.100000)"
fill="#000000" stroke="none">
<path d="M3941 9951 c-30 -23 -59 -42 -65 -43 -23 -3 -53 -5 -109 -7 l-58 -1
-72 -77 c-40 -43 -108 -116 -153 -163 -45 -47 -84 -95 -88 -108 -6 -16 -15
-22 -37 -22 -17 0 -28 -4 -25 -8 3 -5 1 -26 -5 -46 -10 -37 -11 -37 -30 -20
-18 16 -19 16 -19 -12 0 -23 -13 -6 -61 81 -34 61 -68 120 -78 131 -9 12 -74
61 -146 110 -71 48 -146 100 -165 116 -31 25 -43 28 -104 28 -57 0 -74 4 -100
24 -48 36 -64 38 -207 21 -193 -23 -200 -25 -254 -94 -42 -56 -48 -60 -107
-73 -59 -12 -65 -17 -121 -83 -129 -153 -377 -466 -378 -478 -3 -41 7 -94 36
-190 l32 -107 -24 -18 c-23 -17 -24 -23 -24 -117 1 -93 12 -371 27 -682 7
-124 6 -133 -11 -133 -10 0 -40 -20 -66 -45 l-48 -45 -93 -1 c-51 0 -131 -4
-176 -8 l-84 -6 -46 -51 c-77 -82 -177 -215 -207 -274 -15 -30 -36 -64 -46
-76 -25 -26 -49 -120 -49 -188 0 -42 -6 -62 -27 -92 -25 -36 -27 -47 -28 -139
-1 -55 -5 -107 -9 -116 -4 -9 7 -83 25 -165 17 -82 42 -201 55 -264 13 -63 29
-133 35 -155 11 -43 70 -312 90 -410 15 -76 43 -150 75 -196 l24 -35 -20 -115
c-11 -63 -21 -123 -24 -134 -29 -139 -29 -142 -7 -182 43 -78 111 -216 111
-225 0 -14 46 -71 125 -153 36 -38 80 -97 96 -130 16 -32 47 -75 68 -95 55
-51 182 -123 371 -211 145 -67 165 -80 168 -102 3 -27 76 -91 207 -183 39 -26
73 -53 77 -58 3 -5 14 -11 23 -12 9 -1 22 -9 28 -17 14 -18 172 -95 207 -101
34 -6 92 -27 106 -38 7 -5 28 -10 48 -11 43 -4 65 -23 95 -83 13 -25 46 -68
75 -94 28 -27 91 -88 140 -135 49 -47 92 -85 96 -85 4 0 57 -33 117 -74 98
-67 227 -136 253 -136 6 0 30 -18 54 -40 24 -22 46 -40 50 -40 3 0 59 -46 123
-102 175 -150 193 -160 278 -156 67 3 72 2 94 -24 16 -20 20 -34 15 -50 -4
-13 -7 -25 -7 -28 0 -3 -5 -25 -13 -50 -7 -25 -16 -77 -19 -116 -6 -64 -1 -91
40 -255 26 -101 48 -192 50 -201 2 -10 19 -80 38 -155 19 -76 44 -178 55 -228
12 -49 33 -137 46 -195 14 -58 34 -154 45 -215 11 -60 23 -121 26 -135 17 -87
34 -180 39 -210 31 -201 36 -222 66 -265 16 -24 30 -48 30 -53 0 -5 8 -17 19
-26 29 -27 96 -170 136 -294 32 -99 43 -118 86 -163 84 -86 206 -128 374 -129
70 -1 70 -1 97 -39 18 -27 47 -49 92 -71 125 -62 318 -51 401 21 25 23 35 39
35 61 0 16 9 42 19 56 10 15 25 53 32 85 l14 58 50 -7 c27 -3 53 -8 57 -11 4
-2 24 -28 44 -59 137 -207 432 -317 759 -284 169 17 236 36 370 103 141 70
236 157 304 278 29 53 40 61 144 120 62 34 124 71 139 81 l26 18 55 -82 c94
-144 158 -185 270 -175 105 9 177 81 177 177 0 25 -11 92 -25 149 -14 58 -24
109 -21 115 2 6 5 3 5 -6 1 -10 5 -18 9 -18 5 0 20 -22 33 -48 23 -47 73 -94
128 -119 72 -33 198 0 248 66 27 34 28 42 30 157 l3 121 -69 139 c-38 76 -68
140 -66 142 2 2 26 -9 55 -23 60 -30 163 -55 233 -55 35 0 58 -7 89 -28 37
-24 51 -27 123 -27 72 0 86 3 124 28 29 20 50 44 67 80 29 63 30 94 5 150 -11
23 -21 60 -23 81 -3 37 -1 40 32 50 84 26 146 92 181 190 37 106 26 168 -51
281 -15 22 -46 75 -69 117 -36 66 -43 89 -48 155 -5 62 -11 84 -30 108 -34 42
-353 524 -361 544 -3 9 -8 18 -12 21 -18 15 -175 267 -274 440 -21 36 -49 84
-64 107 -15 23 -49 78 -75 122 -26 43 -67 95 -90 113 -55 44 -167 118 -179
118 -24 0 -54 64 -63 135 -3 21 -8 42 -12 48 -19 31 -20 91 -2 131 24 53 24
120 -1 174 -10 23 -16 42 -13 42 3 0 1 6 -5 12 -13 16 -72 187 -72 208 0 9 9
26 20 38 12 12 18 22 15 22 -3 0 4 19 16 42 36 71 88 224 124 366 34 139 39
164 50 262 4 30 8 57 10 60 18 30 27 647 11 769 -5 30 -9 84 -10 120 -2 36 -6
73 -9 81 -4 12 -19 133 -33 275 -12 122 -26 223 -34 242 -5 12 -5 35 0 55 5
18 14 67 19 108 14 104 18 132 32 201 16 80 7 175 -31 329 -38 152 -58 208
-112 308 -61 114 -88 152 -178 254 -17 19 -27 39 -180 348 -61 124 -118 231
-125 239 -8 8 -29 20 -47 25 -31 11 -43 25 -98 117 -14 24 -38 47 -55 54 -16
7 -39 16 -50 20 -11 5 -22 9 -25 10 -3 1 -12 4 -20 8 -106 42 -140 49 -170 37
-21 -9 -55 -11 -101 -7 -64 5 -113 -4 -129 -24 -6 -7 -106 -59 -117 -60 -5 -1
-24 -9 -44 -20 -20 -10 -40 -15 -43 -11 -4 3 -11 0 -15 -7 -7 -11 -13 -8 -26
13 -10 14 -33 43 -52 63 -28 32 -137 191 -278 411 -30 46 -31 47 -111 61 l-81
15 -38 59 c-41 63 -63 81 -110 90 -16 4 -84 17 -149 31 l-120 24 -66 -33 c-66
-33 -66 -33 -149 -23 -46 5 -93 7 -104 4 -23 -6 -143 -96 -187 -141 -14 -14
-32 -25 -40 -25 -8 0 -34 37 -59 83 -49 90 -244 388 -267 408 -8 6 -47 15 -87
19 -76 7 -109 22 -165 74 l-33 31 -192 3 -192 3 -54 -40z"/>
</g>
</svg>
